<svg width="17" height="214" viewBox="0 0 17 214" fill="none" xmlns="http://www.w3.org/2000/svg">
<path d="M11.6025 202.504C11.498 202.397 11.355 202.337 11.2058 202.337C11.0565 202.337 10.9136 202.397 10.809 202.504C10.5946 202.721 10.5946 203.071 10.809 203.289L14.8325 207.313H1.55551C1.40789 207.312 1.26613 207.37 1.16179 207.475C1.05746 207.579 0.999206 207.721 1.00001 207.869C1.00001 208.178 1.24601 208.432 1.55551 208.432H14.8325L10.809 212.448C10.5945 212.67 10.5945 213.028 10.809 213.242C10.9136 213.348 11.0565 213.408 11.2058 213.408C11.355 213.408 11.498 213.348 11.6025 213.242L16.5785 208.266C16.6849 208.163 16.745 208.021 16.745 207.873C16.745 207.725 16.6849 207.583 16.5785 207.48L11.6025 202.504Z" fill="#ECC417"/>
<path d="M12.8222 149.355C11.4476 149.355 10.3333 150.469 10.3333 151.844C10.3333 153.218 11.4476 154.332 12.8222 154.332C14.1968 154.332 15.3111 153.218 15.3111 151.844C15.3111 151.183 15.0489 150.55 14.5821 150.084C14.1154 149.617 13.4823 149.355 12.8222 149.355ZM10.9556 151.844C10.9561 151.146 11.3458 150.507 11.9658 150.186C12.5858 149.866 13.3325 149.919 13.9018 150.322L11.3009 152.923C11.0767 152.608 10.956 152.231 10.9556 151.844ZM12.8222 153.71C12.4353 153.71 12.058 153.589 11.7427 153.365L14.3436 150.764C14.7471 151.333 14.7995 152.08 14.4793 152.7C14.1592 153.32 13.52 153.71 12.8222 153.71Z" fill="#ECC417"/>
<path d="M14.5116 155.888H1L1.00001 155.421C0.997312 153.293 1.99658 151.288 3.69734 150.008C3.83016 149.907 4.00686 149.884 4.16086 149.949C4.31487 150.013 4.42279 150.155 4.44397 150.32C4.46516 150.486 4.39638 150.65 4.26356 150.752C2.92662 151.757 2.08497 153.287 1.95201 154.955H14.5116C14.7693 154.955 14.9782 155.164 14.9782 155.421C14.9782 155.679 14.7693 155.888 14.5116 155.888Z" fill="#ECC417"/>
<path d="M7.84445 150.089C5.61076 150.089 3.8 148.278 3.8 146.044C3.8 143.811 5.61076 142 7.84445 142C10.0781 142 11.8889 143.811 11.8889 146.044C11.8889 147.117 11.4628 148.146 10.7043 148.904C9.94582 149.663 8.9171 150.089 7.84445 150.089ZM7.84445 142.933C6.12623 142.933 4.73334 144.326 4.73334 146.044C4.73334 147.763 6.12623 149.156 7.84445 149.156C9.56267 149.156 10.9556 147.763 10.9556 146.044C10.9556 145.219 10.6278 144.428 10.0443 143.845C9.46089 143.261 8.66957 142.933 7.84445 142.933Z" fill="#ECC417"/>
<path d="M3.18913 8.96526L6.9136 12.7904C7.16597 13.0097 7.64992 13.1002 7.932 12.8467C8.20985 12.5971 8.20158 12.1129 7.92479 11.8623L5.30603 9.1762H16.3017C16.6873 9.1762 17 8.87398 17 8.50118C17 8.12838 16.6873 7.82616 16.3017 7.82616H5.30603L7.92479 5.14009C8.16308 4.90935 8.20712 4.40816 7.932 4.15567C7.65695 3.90319 7.15562 3.98386 6.9136 4.21194L3.18913 8.03709C3.06169 8.168 2.99958 8.32158 3 8.50118C3.00652 8.66205 3.07503 8.84799 3.18913 8.96526Z" fill="#ECC417"/>
<path d="M5.99996 16.2989C5.99806 16.4881 5.92248 16.6686 5.79005 16.8002C5.65761 16.9319 5.47934 17.0038 5.29494 16.9998H0.690647C0.309235 16.9998 4.58273e-05 16.6827 0 16.2915V0.708395C3.82003e-05 0.317214 0.30923 0.000108622 0.690647 7.12578e-05H5.29494C5.54401 -0.00354446 5.77569 0.130665 5.90125 0.351307C6.02682 0.57195 6.02682 0.844841 5.90125 1.06548C5.77569 1.28613 5.54401 1.42034 5.29494 1.41672H1.38129V15.5832H5.29494C5.48183 15.5792 5.66233 15.6531 5.79519 15.788C5.92805 15.9228 6.00193 16.1072 5.99996 16.2989Z" fill="#ECC417"/>
<path d="M13.0638 49L5 57.0596V59.9594L7.9381 60L16 51.9346L13.0638 49ZM7.45455 58.8304L6.15667 58.8188V57.5409L13.0638 50.6413L14.3578 51.9346L7.45455 58.8304Z" fill="#ECC417"/>
<path d="M7 52.1301V51H0V65H14V58.0009H12.8701V63.8699H1.12994V52.1301H7Z" fill="#ECC417"/>
<path d="M7 25C6.4913 25 6.07895 25.4124 6.07895 25.9211V31.079H0.921052C0.412374 31.079 0 31.4913 0 32C0 32.5087 0.412374 32.9211 0.921052 32.9211H6.07895V38.0789C6.07895 38.5876 6.4913 39 7 39C7.5087 39 7.92105 38.5876 7.92105 38.0789V32.9211H13.0789C13.5876 32.9211 14 32.5087 14 32C14 31.4913 13.5876 31.079 13.0789 31.079H7.92105V25.9211C7.92105 25.4124 7.5087 25 7 25Z" fill="#ECC417"/>
<path d="M8.5 190.929C4.95536 190.929 2.07143 188.045 2.07143 184.5C2.07143 180.955 4.95536 178.071 8.5 178.071C12.0446 178.071 14.9286 180.955 14.9286 184.5C14.9286 188.045 12.0446 190.929 8.5 190.929ZM8.5 177C4.35786 177 1 180.358 1 184.5C1 188.642 4.35786 192 8.5 192C12.6421 192 16 188.642 16 184.5C16 180.358 12.6421 177 8.5 177V177ZM11.3571 184.321H9.03571V180.571C9.03571 180.276 8.79587 180.036 8.5 180.036C8.20413 180.036 7.96429 180.276 7.96429 180.571V184.857C7.96429 185.153 8.20413 185.393 8.5 185.393H11.3571C11.5485 185.393 11.7254 185.291 11.8211 185.125C11.9168 184.959 11.9168 184.755 11.8211 184.589C11.7254 184.424 11.5485 184.321 11.3571 184.321Z" fill="#ECC417"/>
<path d="M7.07895 166H1.92105C1.41237 166 1 166.412 1 166.921C1 167.43 1.41237 167.842 1.92105 167.842H7.07895H8.92105H14.0789C14.5876 167.842 15 167.43 15 166.921C15 166.412 14.5876 166 14.0789 166H8.92105H7.07895Z" fill="#ECC417"/>
<path d="M7.21453 87.958C10.212 87.6209 12.6142 85.2155 12.956 82.2066C13.4047 78.2722 10.3585 74.9231 6.53995 74.8802V73.1152C6.53995 73.0172 6.41786 72.9651 6.33544 73.0264L2.71533 75.6952C2.65428 75.7412 2.65428 75.8301 2.71533 75.876L6.33544 78.5449C6.41786 78.6062 6.53995 78.551 6.53995 78.456V76.6942C9.22299 76.7371 11.3719 79.029 11.1887 81.7684C11.0331 84.1247 9.11921 86.0367 6.77193 86.1869C4.28425 86.3462 2.16895 84.5629 1.79046 82.2035C1.72025 81.7653 1.33871 81.4466 0.899164 81.4466C0.352789 81.4466 -0.0745436 81.9338 0.0109229 82.4762C0.542036 85.8376 3.63409 88.3594 7.21453 87.958Z" fill="#ECC417"/>
<path d="M11.8401 122.36C12.3441 121.87 13.1498 121.882 13.6398 122.386C14.1298 122.89 14.1184 123.695 13.6145 124.185L5.9781 131.61C5.47913 132.095 4.68304 132.089 4.19096 131.597L0.372773 127.779C-0.124258 127.282 -0.124258 126.476 0.372773 125.979C0.869804 125.482 1.67565 125.482 2.17268 125.979L5.1035 128.91L11.8401 122.36Z" fill="#ECC417"/>
<path d="M12.2056 103.28C12.2056 103.552 12.2056 103.826 12.2056 104.099C12.2056 104.753 12.2056 105.408 12.2056 106.061C12.2056 106.845 12.2056 107.63 12.2056 108.415C12.2056 109.089 12.2056 109.76 12.2056 110.434C12.2056 110.75 12.2091 111.066 12.2056 111.382C12.2056 111.424 12.2021 111.467 12.1969 111.509C12.2056 111.448 12.2143 111.385 12.2213 111.325C12.2108 111.403 12.19 111.476 12.1621 111.549C12.1847 111.493 12.2091 111.437 12.2317 111.382C12.1987 111.46 12.1569 111.531 12.1065 111.599C12.143 111.552 12.1795 111.505 12.216 111.458C12.1691 111.517 12.1152 111.571 12.0561 111.618C12.103 111.582 12.15 111.545 12.1969 111.509C12.1291 111.559 12.0578 111.601 11.9796 111.634C12.0352 111.611 12.0909 111.587 12.1465 111.564C12.0735 111.594 11.9987 111.613 11.9222 111.623C11.9831 111.615 12.0457 111.606 12.1065 111.599C12.0092 111.611 11.9101 111.608 11.811 111.608C11.6319 111.608 11.4511 111.608 11.2721 111.608C10.6724 111.608 10.0709 111.608 9.47113 111.608C8.73753 111.608 8.00394 111.608 7.27034 111.608C6.64278 111.608 6.01349 111.608 5.38593 111.608C5.09215 111.608 4.79836 111.611 4.50457 111.608C4.46285 111.608 4.42113 111.604 4.37767 111.599C4.43852 111.608 4.5011 111.616 4.56194 111.623C4.48371 111.613 4.4107 111.592 4.33769 111.564C4.39332 111.587 4.44895 111.611 4.50457 111.634C4.42635 111.601 4.35507 111.559 4.28728 111.509C4.33421 111.545 4.38115 111.582 4.42809 111.618C4.36898 111.571 4.31509 111.517 4.26815 111.458C4.30466 111.505 4.34117 111.552 4.37767 111.599C4.32726 111.531 4.28554 111.46 4.25251 111.382C4.27511 111.437 4.29944 111.493 4.32204 111.549C4.29249 111.476 4.27337 111.401 4.26294 111.325C4.27163 111.385 4.28032 111.448 4.28728 111.509C4.27511 111.406 4.27858 111.302 4.27858 111.198C4.27858 111.007 4.27858 110.814 4.27858 110.623C4.27858 109.979 4.27858 109.333 4.27858 108.689C4.27858 107.905 4.27858 107.12 4.27858 106.337C4.27858 105.656 4.27858 104.974 4.27858 104.293C4.27858 103.96 4.2838 103.627 4.27858 103.293C4.27858 103.288 4.27858 103.285 4.27858 103.28C4.27858 102.917 3.95872 102.568 3.58323 102.585C3.206 102.602 2.88788 102.891 2.88788 103.28C2.88788 103.448 2.88788 103.616 2.88788 103.785C2.88788 104.215 2.88788 104.648 2.88788 105.078C2.88788 105.655 2.88788 106.231 2.88788 106.807C2.88788 107.417 2.88788 108.024 2.88788 108.634C2.88788 109.163 2.88788 109.693 2.88788 110.222C2.88788 110.554 2.88788 110.885 2.88788 111.217C2.88788 111.274 2.88788 111.332 2.88788 111.387C2.89309 111.955 3.19557 112.493 3.68927 112.78C4.05781 112.995 4.44373 112.998 4.84704 112.998C5.25382 112.998 5.66234 112.998 6.06912 112.998C6.64278 112.998 7.21645 112.998 7.79012 112.998C8.39855 112.998 9.00872 112.998 9.61716 112.998C10.1213 112.998 10.6272 112.998 11.1313 112.998C11.4007 112.998 11.6702 112.998 11.9396 112.998C12.2473 112.998 12.5602 112.929 12.8227 112.762C13.299 112.462 13.5894 111.95 13.5946 111.385C13.5963 111.189 13.5946 110.993 13.5946 110.797C13.5946 110.351 13.5946 109.905 13.5946 109.457C13.5946 108.87 13.5946 108.285 13.5946 107.698C13.5946 107.092 13.5946 106.486 13.5946 105.88C13.5946 105.365 13.5946 104.851 13.5946 104.335C13.5946 104.024 13.5946 103.714 13.5946 103.403C13.5946 103.361 13.5946 103.319 13.5946 103.278C13.5946 102.915 13.2747 102.566 12.8992 102.583C12.5237 102.602 12.2056 102.891 12.2056 103.28Z" fill="#ECC417"/>
<path d="M14.7332 100.222C14.4029 100.222 14.0709 100.222 13.7406 100.222C13.1304 100.222 12.522 100.222 11.9118 100.222C11.5885 100.222 11.2651 100.222 10.9418 100.222C10.6828 100.222 10.4238 100.222 10.1647 100.222C9.59455 100.222 9.0261 100.222 8.45591 100.222C7.85269 100.222 7.24948 100.222 6.64452 100.222C6.29163 100.222 5.93874 100.222 5.58584 100.222C5.36507 100.222 5.14603 100.222 4.92526 100.222C4.32726 100.222 3.73099 100.222 3.13299 100.222C2.68275 100.222 2.23424 100.222 1.784 100.222C1.75966 100.222 1.73533 100.222 1.71099 100.222C1.34767 100.222 0.998254 100.542 1.01564 100.917C1.03302 101.293 1.32159 101.611 1.71099 101.611C2.04128 101.611 2.37158 101.611 2.70187 101.611C3.31378 101.611 3.92395 101.611 4.53586 101.611C4.86963 101.611 5.20166 101.611 5.53543 101.611C5.78576 101.611 6.03608 101.611 6.28815 101.611C6.85486 101.611 7.41984 101.611 7.98655 101.611C8.59151 101.611 9.1982 101.611 9.80316 101.611C10.163 101.611 10.5228 101.611 10.8827 101.611C11.0965 101.611 11.3121 101.611 11.5259 101.611C12.1204 101.611 12.7149 101.611 13.3077 101.611C13.758 101.611 14.2082 101.611 14.6585 101.611C14.6828 101.611 14.7071 101.611 14.7315 101.611C15.0948 101.611 15.4442 101.292 15.4268 100.917C15.4112 100.54 15.1226 100.222 14.7332 100.222Z" fill="#ECC417"/>
<path d="M6.19776 100.917C6.19776 100.411 6.19776 99.9062 6.19776 99.401C6.19776 99.3212 6.19428 99.2396 6.20124 99.1597C6.19254 99.2205 6.18385 99.283 6.1769 99.3437C6.18211 99.3038 6.19254 99.2674 6.20645 99.2309C6.18385 99.2865 6.15951 99.342 6.13692 99.3976C6.15604 99.3542 6.17864 99.3142 6.20819 99.276C6.17168 99.3229 6.13518 99.3698 6.09867 99.4167C6.12996 99.3785 6.16299 99.3455 6.1995 99.316C6.15256 99.3524 6.10563 99.3889 6.05869 99.4253C6.10389 99.3906 6.15256 99.3628 6.20471 99.3403C6.14908 99.3628 6.09346 99.3872 6.03783 99.4097C6.08303 99.3924 6.12996 99.3802 6.17864 99.3715C6.11779 99.3802 6.05521 99.3889 5.99437 99.3958C6.1543 99.3767 6.32118 99.3906 6.48112 99.3906C6.83227 99.3906 7.18342 99.3906 7.53284 99.3906C8.33075 99.3906 9.13041 99.3906 9.92833 99.3906C10.123 99.3906 10.3264 99.3733 10.5194 99.3958C10.4585 99.3872 10.396 99.3785 10.3351 99.3715C10.3716 99.3785 10.4081 99.3872 10.4429 99.401C10.3873 99.3785 10.3316 99.3542 10.276 99.3316C10.316 99.349 10.3525 99.3698 10.3873 99.3976C10.3403 99.3611 10.2934 99.3247 10.2465 99.2882C10.2743 99.3108 10.2986 99.3368 10.3229 99.3646C10.2864 99.3177 10.2499 99.2708 10.2134 99.224C10.2395 99.2587 10.2621 99.2969 10.2812 99.3368C10.2586 99.2812 10.2343 99.2257 10.2117 99.1701C10.2325 99.2205 10.2447 99.2691 10.2534 99.3229C10.2447 99.2622 10.236 99.1997 10.2291 99.1389C10.2499 99.342 10.2325 99.5538 10.2325 99.7587C10.2325 100.071 10.2325 100.384 10.2325 100.696C10.2325 100.771 10.2325 100.845 10.2325 100.92C10.2325 101.283 10.5524 101.632 10.9279 101.615C11.3051 101.597 11.6233 101.309 11.6233 100.92C11.6233 100.351 11.6337 99.7795 11.6233 99.2101C11.6146 98.6771 11.2582 98.1302 10.7054 98.033C10.5854 98.0122 10.4742 98.0035 10.356 98.0035C10.1039 98.0035 9.85184 98.0035 9.59977 98.0035C8.7949 98.0035 7.98829 98.0035 7.18342 98.0035C6.88442 98.0035 6.58368 98.0035 6.28468 98.0035C6.21862 98.0035 6.15256 98.0035 6.08476 98.0035C5.74057 98.0052 5.38246 98.1424 5.14604 98.3993C4.93743 98.6267 4.81748 98.901 4.80879 99.2101C4.80879 99.2361 4.80879 99.2622 4.80879 99.2865C4.80879 99.4444 4.80879 99.6007 4.80879 99.7587C4.80879 100.123 4.80879 100.486 4.80879 100.851C4.80879 100.873 4.80879 100.898 4.80879 100.92C4.80879 101.283 5.12865 101.632 5.50414 101.615C5.87964 101.594 6.19776 101.306 6.19776 100.917Z" fill="#ECC417"/>
<path d="M6.01697 103.28C6.01697 103.488 6.01697 103.696 6.01697 103.903C6.01697 104.403 6.01697 104.901 6.01697 105.401C6.01697 106.005 6.01697 106.609 6.01697 107.214C6.01697 107.736 6.01697 108.259 6.01697 108.781C6.01697 109.035 6.01175 109.288 6.01697 109.542C6.01697 109.545 6.01697 109.549 6.01697 109.552C6.01697 109.915 6.33683 110.264 6.71232 110.247C7.08955 110.229 7.40767 109.941 7.40767 109.552C7.40767 109.344 7.40767 109.135 7.40767 108.929C7.40767 108.429 7.40767 107.931 7.40767 107.431C7.40767 106.826 7.40767 106.222 7.40767 105.618C7.40767 105.095 7.40767 104.573 7.40767 104.05C7.40767 103.797 7.41289 103.543 7.40767 103.29C7.40767 103.286 7.40767 103.283 7.40767 103.28C7.40767 102.917 7.08781 102.568 6.71232 102.585C6.33509 102.602 6.01697 102.891 6.01697 103.28Z" fill="#ECC417"/>
<path d="M9.07478 103.28C9.07478 103.488 9.07478 103.696 9.07478 103.903C9.07478 104.403 9.07478 104.901 9.07478 105.401C9.07478 106.005 9.07478 106.609 9.07478 107.214C9.07478 107.736 9.07478 108.259 9.07478 108.781C9.07478 109.035 9.06957 109.288 9.07478 109.542C9.07478 109.545 9.07478 109.549 9.07478 109.552C9.07478 109.915 9.39464 110.264 9.77013 110.247C10.1474 110.229 10.4655 109.941 10.4655 109.552C10.4655 109.344 10.4655 109.135 10.4655 108.929C10.4655 108.429 10.4655 107.931 10.4655 107.431C10.4655 106.826 10.4655 106.222 10.4655 105.618C10.4655 105.095 10.4655 104.573 10.4655 104.05C10.4655 103.797 10.4707 103.543 10.4655 103.29C10.4655 103.286 10.4655 103.283 10.4655 103.28C10.4655 102.917 10.1456 102.568 9.77013 102.585C9.39291 102.602 9.07478 102.891 9.07478 103.28Z" fill="#ECC417"/>
</svg>
